<svg id="Layer_1" data-name="Layer 1" xmlns="http://www.w3.org/2000/svg" viewBox="0 0 205.16 116.5"><defs><style>.cls-1{fill:#272828;}.cls-2{fill:#aee242;}</style></defs><title>Logo_Reduccion</title><path class="cls-1" d="M142.66,8.15a52.27,52.27,0,0,1,21,4.27,54.66,54.66,0,0,1,28.88,28.87,53.95,53.95,0,0,1,0,42.07,54.66,54.66,0,0,1-28.88,28.87,52.27,52.27,0,0,1-21,4.27H54.18a52.35,52.35,0,0,1-21-4.27A54.69,54.69,0,0,1,4.27,83.36,52.31,52.31,0,0,1,0,62.32a52.27,52.27,0,0,1,4.27-21A54.49,54.49,0,0,1,16,24.06,55.87,55.87,0,0,1,33.3,12.42a52.27,52.27,0,0,1,21-4.27Zm-72.34,18a18.92,18.92,0,0,0-8.54,2,29.81,29.81,0,0,0-8.3,5.2,34.64,34.64,0,0,0-6.6,7.84,39.05,39.05,0,0,0-4.34,9.94,41.92,41.92,0,0,0,0,22.66,39.05,39.05,0,0,0,4.34,9.94,34.37,34.37,0,0,0,6.6,7.83,29.84,29.84,0,0,0,8.3,5.21,18.91,18.91,0,0,0,8.54,2h56.51a18.59,18.59,0,0,0,8.38-2,30,30,0,0,0,8.31-5.21,34.59,34.59,0,0,0,6.59-7.83,39.07,39.07,0,0,0,4.35-9.94,42.18,42.18,0,0,0,0-22.66,39.07,39.07,0,0,0-4.35-9.94,34.86,34.86,0,0,0-6.59-7.84,30,30,0,0,0-8.31-5.2,18.6,18.6,0,0,0-8.38-2Z"/><path class="cls-2" d="M205.16,11.28A11.59,11.59,0,1,1,193.6,0,11.34,11.34,0,0,1,205.16,11.28Zm-20.29,0a8.74,8.74,0,0,0,8.8,9,8.64,8.64,0,0,0,8.6-8.94c0-5-3.65-9.08-8.67-9.08A8.76,8.76,0,0,0,184.87,11.28Zm6.94,5.92H189.2V5.92a22.46,22.46,0,0,1,4.33-.35,7,7,0,0,1,3.92.83,3.11,3.11,0,0,1,1.1,2.47,2.9,2.9,0,0,1-2.34,2.62v.13a3.33,3.33,0,0,1,2.07,2.76,8.87,8.87,0,0,0,.82,2.82h-2.82a9.83,9.83,0,0,1-.89-2.76c-.21-1.23-.89-1.79-2.34-1.79h-1.24Zm.07-6.4h1.24c1.45,0,2.61-.48,2.61-1.65s-.75-1.72-2.4-1.72a6.23,6.23,0,0,0-1.45.14Z"/></svg>